<svg width="150" height="46" viewBox="0 0 150 46" fill="none" xmlns="http://www.w3.org/2000/svg">
<rect x="0.5" y="1.11621" width="149" height="44" rx="22" stroke="#F53855"/>
<path d="M50.136 28.7762C49.1867 28.7762 48.3707 28.6322 47.688 28.3442C47.0053 28.0562 46.488 27.6775 46.136 27.2082C45.784 26.7389 45.5973 26.2322 45.576 25.6882C45.576 25.5922 45.608 25.5122 45.672 25.4482C45.736 25.3842 45.816 25.3522 45.912 25.3522H47.336C47.464 25.3522 47.56 25.3789 47.624 25.4322C47.6987 25.4749 47.768 25.5495 47.832 25.6562C47.9387 26.0189 48.184 26.3229 48.568 26.5682C48.952 26.8135 49.4747 26.9362 50.136 26.9362C50.8933 26.9362 51.464 26.8135 51.848 26.5682C52.232 26.3122 52.424 25.9602 52.424 25.5122C52.424 25.2135 52.3227 24.9682 52.12 24.7762C51.928 24.5842 51.6347 24.4189 51.24 24.2802C50.856 24.1415 50.28 23.9709 49.512 23.7682C48.2533 23.4695 47.3307 23.0749 46.744 22.5842C46.168 22.0829 45.88 21.3735 45.88 20.4562C45.88 19.8375 46.0453 19.2882 46.376 18.8082C46.7173 18.3282 47.2027 17.9495 47.832 17.6722C48.472 17.3949 49.2133 17.2562 50.056 17.2562C50.9307 17.2562 51.688 17.4109 52.328 17.7202C52.968 18.0295 53.4533 18.4189 53.784 18.8882C54.1253 19.3469 54.3067 19.8055 54.328 20.2642C54.328 20.3602 54.296 20.4402 54.232 20.5042C54.168 20.5682 54.088 20.6002 53.992 20.6002H52.504C52.28 20.6002 52.1253 20.4989 52.04 20.2962C51.976 19.9549 51.7627 19.6722 51.4 19.4482C51.0373 19.2135 50.5893 19.0962 50.056 19.0962C49.4587 19.0962 48.9893 19.2082 48.648 19.4322C48.3067 19.6562 48.136 19.9815 48.136 20.4082C48.136 20.7069 48.2213 20.9522 48.392 21.1442C48.5627 21.3362 48.8293 21.5069 49.192 21.6562C49.5653 21.8055 50.0987 21.9709 50.792 22.1522C51.7307 22.3655 52.4773 22.6055 53.032 22.8722C53.5973 23.1389 54.0133 23.4749 54.28 23.8802C54.5467 24.2855 54.68 24.8029 54.68 25.4322C54.68 26.1149 54.488 26.7122 54.104 27.2242C53.7307 27.7255 53.1973 28.1095 52.504 28.3762C51.8213 28.6429 51.032 28.7762 50.136 28.7762ZM56.6416 18.9202C56.535 18.9202 56.4443 18.8829 56.3696 18.8082C56.295 18.7335 56.2576 18.6429 56.2576 18.5362V17.3842C56.2576 17.2775 56.295 17.1869 56.3696 17.1122C56.4443 17.0375 56.535 17.0002 56.6416 17.0002H58.0976C58.2043 17.0002 58.295 17.0375 58.3696 17.1122C58.455 17.1869 58.4976 17.2775 58.4976 17.3842V18.5362C58.4976 18.6429 58.4603 18.7335 58.3856 18.8082C58.311 18.8829 58.215 18.9202 58.0976 18.9202H56.6416ZM56.7056 28.6162C56.599 28.6162 56.5083 28.5789 56.4336 28.5042C56.359 28.4295 56.3216 28.3389 56.3216 28.2322V20.6802C56.3216 20.5735 56.359 20.4829 56.4336 20.4082C56.5083 20.3335 56.599 20.2962 56.7056 20.2962H58.0336C58.151 20.2962 58.2416 20.3335 58.3056 20.4082C58.3803 20.4722 58.4176 20.5629 58.4176 20.6802V28.2322C58.4176 28.3389 58.3803 28.4295 58.3056 28.5042C58.2416 28.5789 58.151 28.6162 58.0336 28.6162H56.7056ZM64.3004 32.1362C63.351 32.1362 62.583 31.9762 61.9964 31.6562C61.4097 31.3469 60.9937 30.9895 60.7484 30.5842C60.503 30.1789 60.3804 29.8322 60.3804 29.5442C60.3804 29.4482 60.4177 29.3629 60.4924 29.2882C60.5777 29.2135 60.6684 29.1762 60.7644 29.1762H62.1564C62.2524 29.1762 62.3324 29.1975 62.3964 29.2402C62.471 29.2935 62.5297 29.3842 62.5724 29.5122C62.679 29.8002 62.8497 30.0402 63.0844 30.2322C63.3297 30.4349 63.7084 30.5362 64.2204 30.5362C64.8604 30.5362 65.3297 30.3922 65.6284 30.1042C65.9377 29.8162 66.0924 29.3202 66.0924 28.6162V27.5282C65.5057 28.2215 64.6844 28.5682 63.6284 28.5682C62.519 28.5682 61.6817 28.2269 61.1164 27.5442C60.5617 26.8615 60.263 25.9442 60.2204 24.7922L60.2044 24.3602L60.2204 23.9282C60.263 22.7975 60.567 21.8855 61.1324 21.1922C61.6977 20.4882 62.5297 20.1362 63.6284 20.1362C64.1937 20.1362 64.6897 20.2429 65.1164 20.4562C65.543 20.6695 65.9004 20.9629 66.1884 21.3362V20.6962C66.1884 20.5789 66.2257 20.4829 66.3004 20.4082C66.375 20.3335 66.4657 20.2962 66.5724 20.2962H67.8684C67.975 20.2962 68.0657 20.3389 68.1404 20.4242C68.215 20.4989 68.2524 20.5895 68.2524 20.6962L68.2684 28.4082C68.2684 29.5922 67.9377 30.5095 67.2764 31.1602C66.615 31.8109 65.623 32.1362 64.3004 32.1362ZM64.2204 26.8722C64.8284 26.8722 65.2817 26.6802 65.5804 26.2962C65.8897 25.9122 66.0604 25.4429 66.0924 24.8882C66.103 24.8029 66.1084 24.6269 66.1084 24.3602C66.1084 24.1042 66.103 23.9335 66.0924 23.8482C66.0604 23.2829 65.8897 22.8082 65.5804 22.4242C65.2817 22.0402 64.8284 21.8482 64.2204 21.8482C63.0684 21.8482 62.4604 22.5575 62.3964 23.9762L62.3804 24.3602C62.3804 25.1175 62.5137 25.7255 62.7804 26.1842C63.0577 26.6429 63.5377 26.8722 64.2204 26.8722ZM70.7838 28.6162C70.6771 28.6162 70.5864 28.5789 70.5118 28.5042C70.4371 28.4295 70.3997 28.3389 70.3997 28.2322V20.6802C70.3997 20.5735 70.4371 20.4829 70.5118 20.4082C70.5864 20.3335 70.6771 20.2962 70.7838 20.2962H72.0958C72.2024 20.2962 72.2931 20.3335 72.3678 20.4082C72.4424 20.4829 72.4798 20.5735 72.4798 20.6802V21.3362C73.1091 20.5362 73.9998 20.1362 75.1518 20.1362C76.1331 20.1362 76.9118 20.4615 77.4878 21.1122C78.0638 21.7522 78.3518 22.6269 78.3518 23.7362V28.2322C78.3518 28.3389 78.3144 28.4295 78.2398 28.5042C78.1758 28.5789 78.0851 28.6162 77.9678 28.6162H76.5598C76.4531 28.6162 76.3624 28.5789 76.2878 28.5042C76.2131 28.4295 76.1758 28.3389 76.1758 28.2322V23.8322C76.1758 23.2029 76.0211 22.7175 75.7118 22.3762C75.4131 22.0242 74.9758 21.8482 74.3998 21.8482C73.8344 21.8482 73.3864 22.0242 73.0558 22.3762C72.7358 22.7282 72.5758 23.2135 72.5758 23.8322V28.2322C72.5758 28.3389 72.5384 28.4295 72.4638 28.5042C72.3998 28.5789 72.3091 28.6162 72.1918 28.6162H70.7838ZM88.6964 28.7762C87.2564 28.7762 86.1364 28.4082 85.3364 27.6722C84.5364 26.9362 84.1364 25.8215 84.1364 24.3282V17.8162C84.1364 17.6989 84.1684 17.6029 84.2324 17.5282C84.307 17.4535 84.403 17.4162 84.5204 17.4162H85.9764C86.0937 17.4162 86.1844 17.4535 86.2484 17.5282C86.323 17.6029 86.3604 17.6989 86.3604 17.8162V24.3282C86.3604 25.1815 86.563 25.8269 86.9684 26.2642C87.3737 26.6909 87.9497 26.9042 88.6964 26.9042C89.443 26.9042 90.0137 26.6909 90.4084 26.2642C90.8137 25.8269 91.0164 25.1815 91.0164 24.3282V17.8162C91.0164 17.6989 91.0537 17.6029 91.1284 17.5282C91.203 17.4535 91.299 17.4162 91.4164 17.4162H92.8564C92.9737 17.4162 93.0644 17.4535 93.1284 17.5282C93.203 17.6029 93.2404 17.6989 93.2404 17.8162V24.3282C93.2404 25.8215 92.8404 26.9362 92.0404 27.6722C91.251 28.4082 90.1364 28.7762 88.6964 28.7762ZM95.8466 31.6562C95.74 31.6562 95.6493 31.6189 95.5746 31.5442C95.5 31.4802 95.4626 31.3895 95.4626 31.2722V20.6802C95.4626 20.5629 95.5 20.4722 95.5746 20.4082C95.6493 20.3335 95.74 20.2962 95.8466 20.2962H97.1106C97.228 20.2962 97.3186 20.3335 97.3826 20.4082C97.4573 20.4722 97.4946 20.5629 97.4946 20.6802V21.3202C98.092 20.5309 98.9453 20.1362 100.055 20.1362C101.132 20.1362 101.959 20.4775 102.535 21.1602C103.111 21.8322 103.42 22.7442 103.463 23.8962C103.473 24.0242 103.479 24.2109 103.479 24.4562C103.479 24.7122 103.473 24.9042 103.463 25.0322C103.42 26.1522 103.111 27.0589 102.535 27.7522C101.959 28.4349 101.132 28.7762 100.055 28.7762C98.9773 28.7762 98.156 28.3975 97.5906 27.6402V31.2722C97.5906 31.3895 97.5533 31.4802 97.4786 31.5442C97.4146 31.6189 97.324 31.6562 97.2066 31.6562H95.8466ZM99.4626 27.0642C100.615 27.0642 101.228 26.3549 101.303 24.9362C101.313 24.8295 101.319 24.6695 101.319 24.4562C101.319 24.2429 101.313 24.0829 101.303 23.9762C101.228 22.5575 100.615 21.8482 99.4626 21.8482C98.844 21.8482 98.3853 22.0455 98.0866 22.4402C97.788 22.8349 97.6226 23.3202 97.5906 23.8962L97.5746 24.5042L97.5906 25.1282C97.612 25.6615 97.7773 26.1202 98.0866 26.5042C98.4066 26.8775 98.8653 27.0642 99.4626 27.0642Z" fill="#F53855"/>
</svg>
